<?xml version="1.0" encoding="utf-8"?>
<!-- Generator: Adobe Illustrator 21.0.0, SVG Export Plug-In . SVG Version: 6.00 Build 0)  -->
<svg version="1.1" id="Layer_1" xmlns="http://www.w3.org/2000/svg" xmlns:xlink="http://www.w3.org/1999/xlink" x="0px" y="0px"
	 viewBox="0 0 400 400" style="enable-background:new 0 0 400 400;" xml:space="preserve">
<style type="text/css">
	.st0{opacity:0.78;fill:#FFFFFF;}
	.st1{fill:#41AACE;}
	.st2{opacity:0.5;clip-path:url(#SVGID_2_);fill:url(#SVGID_3_);}
	.st3{fill:#FFFFFF;}
	.st4{fill:#A9CDD3;}
	.st5{opacity:0.5;fill:url(#SVGID_4_);}
	.st6{fill:#FF8B0D;}
	.st7{fill:#003768;}
	.st8{fill:#D1E6E8;}
	.st9{opacity:0.5;fill:url(#SVGID_5_);}
</style>
<g>
	<g>
		<path class="st0" d="M359.8,281.9c0,2.7-2.2,5.9-4.8,7.3l-152.6,76.4c-2.7,1.3-7,1.3-9.7,0L40,289.2c-2.7-1.3-4.8-4.6-4.8-7.3
			V129.2c0-2.7,2.2-5.9,4.8-7.3l152.6-76.4c2.7-1.3,7-1.3,9.7,0L355,121.9c2.7,1.3,4.8,4.6,4.8,7.3V281.9z"/>
		<path class="st1" d="M355.8,280.1c0,2.6-2.1,5.8-4.7,7.1l-148.9,74.5c-2.6,1.3-6.9,1.3-9.4,0L43.8,287.1c-2.6-1.3-4.7-4.5-4.7-7.1
			V131c0-2.6,2.1-5.8,4.7-7.1l148.9-74.5c2.6-1.3,6.8-1.3,9.4,0l148.9,74.5c2.6,1.3,4.7,4.5,4.7,7.1V280.1z"/>
		<g>
			<defs>
				<path id="SVGID_1_" d="M355.3,279.6c0,2.6-2.1,5.8-4.7,7.1l-148.9,74.5c-2.6,1.3-6.9,1.3-9.5,0L43.3,286.7
					c-2.6-1.3-4.7-4.5-4.7-7.1v-149c0-2.6,2.1-5.8,4.7-7.1l148.9-74.5c2.6-1.3,6.8-1.3,9.5,0l148.9,74.5c2.6,1.3,4.7,4.5,4.7,7.1
					V279.6z"/>
			</defs>
			<clipPath id="SVGID_2_">
				<use xlink:href="#SVGID_1_"  style="overflow:visible;"/>
			</clipPath>
			
				<linearGradient id="SVGID_3_" gradientUnits="userSpaceOnUse" x1="-200.1365" y1="434.5316" x2="241.7316" y2="-39.314" gradientTransform="matrix(0.5455 7.390000e-02 7.390000e-02 0.5507 129.818 97.4918)">
				<stop  offset="0.1264" style="stop-color:#FFFFFF"/>
				<stop  offset="0.2005" style="stop-color:#F6F6F6"/>
				<stop  offset="0.3216" style="stop-color:#DEDEDE"/>
				<stop  offset="0.4745" style="stop-color:#B6B6B6"/>
				<stop  offset="0.6533" style="stop-color:#7F7F7F"/>
				<stop  offset="0.8513" style="stop-color:#393939"/>
				<stop  offset="1" style="stop-color:#000000"/>
			</linearGradient>
			<polygon class="st2" points="249.1,109.1 290.4,127.3 312.3,144.9 327.4,163.1 328.3,179.9 321.5,190.1 87.5,326.6 21.4,292 
				16.8,195.9 191.9,92.3 			"/>
		</g>
		<g>
			<path class="st3" d="M199.2,192.1c0,0.6-0.6,1.1-1.3,1.1H72.1c-0.7,0-1.3-0.5-1.3-1.1V52.6c0-0.6,0.6-1.1,1.3-1.1h125.8
				c0.7,0,1.3,0.5,1.3,1.1V192.1z"/>
			<g>
				<rect x="97.2" y="71.4" class="st4" width="77.9" height="3.7"/>
				<rect x="97.2" y="77.6" class="st4" width="77.9" height="3.7"/>
				<rect x="97.2" y="84" class="st4" width="77.9" height="3.7"/>
				<rect x="97.2" y="90.4" class="st4" width="77.9" height="3.7"/>
			</g>
			<g>
				<rect x="97.2" y="109.5" class="st4" width="77.9" height="3.7"/>
				<rect x="97.2" y="115.8" class="st4" width="77.9" height="3.7"/>
				<rect x="97.2" y="122.1" class="st4" width="77.9" height="3.7"/>
				<rect x="97.2" y="128.5" class="st4" width="77.9" height="3.7"/>
			</g>
			<g>
				<rect x="97.2" y="146.9" class="st4" width="77.9" height="3.7"/>
				<rect x="97.2" y="153.1" class="st4" width="77.9" height="3.7"/>
				<rect x="97.2" y="159.5" class="st4" width="77.9" height="3.7"/>
				<rect x="97.2" y="165.9" class="st4" width="77.9" height="3.7"/>
			</g>
		</g>
		<linearGradient id="SVGID_4_" gradientUnits="userSpaceOnUse" x1="97.4489" y1="337.7859" x2="300.089" y2="120.4811">
			<stop  offset="0.1319" style="stop-color:#FFFFFF"/>
			<stop  offset="0.8132" style="stop-color:#000000"/>
		</linearGradient>
		<polygon class="st5" points="39.5,283.7 174,351.5 261.7,301.1 267.8,288.3 308.4,264.3 292.2,246.6 289.8,204.6 237.1,183.3 
			192.2,168.3 41.7,244.8 		"/>
		<path class="st6" d="M130.5,214.5c-1.5-0.7-3.5-1.1-3.5-1.1s2.9,5.8,3.1,9.4c0.3,4.8-3.6,7.9-10.6,7.8c-8-0.3-10-4.1-9.6-8.9
			c0.3-3.6,3.2-8.6,3.2-8.6s-2.1,0.1-2.1,0.1c-2.7,0.2-7.4,3.7-11.2,8.8c-2.2,3.1-6.2,8.2,0.6,15.1c6.8,6.9,7.8,9.5,7.7,12.5
			c-0.1,2.6,1.5,53.2,1.8,70.1c-0.2,1.5-0.6,2.2-1.2,2.7c-0.3,0.2-1.6,1.1-1.8,1.2c-6.2,5.2-6.4,13.7-0.5,19.1
			c6,5.4,15.8,5.6,22.1,0.4c6.2-5.2,6.4-13.7,0.5-19.1c-0.3-0.3-1.5-1.2-1.8-1.4c-0.6-0.5-1-1.1-1.2-2.5c0.7-16.5,4-68,3.9-70.6
			c-0.1-3,1.2-5.5,8.1-12.2c6.9-6.7,3.3-11.6,1.4-14.8C137.2,219.3,133.9,216.1,130.5,214.5z M123.5,338.8c-3.4,2.8-8.8,2.7-12-0.2
			c-3.2-2.9-3.1-7.6,0.3-10.4c3.4-2.8,8.8-2.7,12,0.2C127,331.4,126.9,336,123.5,338.8z"/>
		<path class="st7" d="M85.9,279.7c1.4-1.3,3-3.6,4.6-8.2c2.3-6.8-2.4-9.1-4.8-11.3c-2.4-2.1-4.1-3.7-4.4-5.8
			c-0.3-2.1,2-67.3,1.8-70.1c-0.1-2.8,1-5.1,7.2-11.5c6.2-6.4,2.8-10.8,0.9-13.7c-2.1-3.1-5.2-6-8.4-7.4c-1.4-0.6-3.3-0.9-3.3-0.9
			s2.8,5.4,3.1,8.6c0.4,4.5-3.1,7.4-9.6,7.4c-7.4-0.2-9.4-3.6-9.1-8.1c0.2-3.3,2.8-8,2.8-8s-1.9,0.1-1.9,0.1
			c-2.5,0.2-6.7,3.5-10.1,8.4c-2,2.9-5.5,7.7,0.9,14c6.4,6.3,7.5,8.6,7.4,11.4c-0.1,2.8,3.9,67.7,3.6,69.9c-0.3,2.1-2.2,3.9-4.6,6.1
			c-2.3,2.2-5.9,4.4-3.4,11.1c2.3,6,5.7,9.3,7,9.9c0.5,0.3,1,0.5,1.5,0.5c1.6,0-3.7-5-1.2-10.6c0.3-0.8,9.4-4.7,16.8,0
			c0.8,0.5,0.8,10.1,1.4,9.7C84.3,281.2,85,280.7,85.9,279.7z"/>
		<g>
			<path class="st3" d="M233.1,223.3c-6.4,0.2-11.3,4.8-11.1,10.4c0.2,5.5,5.6,9.8,12,9.6c6.4-0.2,11.4-4.8,11.1-10.4
				C244.9,227.4,239.5,223.1,233.1,223.3z M231.8,192.5c-26,0.8-46.4,19.8-45.4,42.4c1,22.6,22.9,40.2,48.9,39.4
				c26-0.8,46.4-19.8,45.4-42.4C279.7,209.2,257.9,191.6,231.8,192.5z M234.5,254.3c-13.4,0.4-24.6-8.6-25.1-20.2
				c-0.5-11.6,9.9-21.3,23.3-21.7c13.4-0.4,24.6,8.6,25.1,20.2C258.2,244.1,247.8,253.9,234.5,254.3z M314.4,254.3l-3.9,8.8
				c-0.5,1.3-2.3,2.1-4,1.7l-14.8-3.2c-5.3,8.2-12.9,15.2-22,20.3l4.6,12.2c0.6,1.5-0.2,3.1-1.7,3.6l-9.8,4
				c-1.4,0.7-3.3,0.2-4.3-1.2l-8.2-11.2c-4.6,1-9.4,1.7-14.4,1.8c-5.4,0.2-10.6-0.2-15.6-1.1l-7.3,11.9c-0.9,1.4-2.7,2-4.1,1.4
				l-10.1-3.3c-1.5-0.4-2.4-1.9-2-3.5l3.7-13c-9.2-4.5-17-10.9-22.8-18.6l-15.5,4.4c-1.7,0.5-3.6-0.2-4.1-1.4l-4.6-8.5
				c-0.8-1.2-0.2-2.9,1.3-3.7l14.3-7.9c-1.2-4-1.9-8.1-2.1-12.4c-0.2-5,0.3-9.9,1.5-14.6l-15-7c-1.6-0.7-2.3-2.4-1.6-3.6l3.9-8.8
				c0.5-1.3,2.2-2.1,4-1.7l16.8,3.6c5.3-7.5,12.5-14,21-18.8l-5.7-13.9c-0.6-1.5,0.1-3.1,1.6-3.6l9.7-4.2c1.4-0.7,3.3-0.2,4.3,1
				l10,12.9c0.1,0.1,0.1,0.2,0.2,0.3c4.4-0.9,8.9-1.5,13.6-1.7c5.1-0.2,10.1,0.2,14.9,1c0,0,0-0.1,0-0.1l8.9-13.5
				c0.9-1.3,2.8-1.9,4.2-1.3l10,3.6c1.5,0.4,2.4,2,1.9,3.5l-4.6,14.3c8.4,4.1,15.7,9.8,21.3,16.6l15.4-4.4c1.7-0.5,3.6,0.2,4.1,1.5
				l4.6,8.5c0.8,1.2,0.2,2.9-1.3,3.7l-13.3,7.4c1.7,4.7,2.7,9.8,2.9,15c0.2,4.5-0.2,8.8-1.2,13l13.8,6.4
				C314.4,251.4,315.1,253,314.4,254.3z"/>
			<g>
				<g>
					<path class="st8" d="M217.3,177.2c-0.1-0.1-0.1-0.2-0.2-0.3l-10-12.9c-1-1.3-2.9-1.8-4.3-1l-9.7,4.2c-1.5,0.5-2.2,2.1-1.6,3.6
						l5.7,13.9c-8.6,4.8-15.8,11.2-21,18.8l-16.8-3.6c-1.8-0.4-3.5,0.4-4,1.7l-3.9,8.8c-0.7,1.2,0,2.9,1.6,3.6l15,7
						c-1.2,4.7-1.7,9.5-1.5,14.5c0.2,4.3,0.9,8.4,2.1,12.4l-14.3,7.9c-1.5,0.8-2.1,2.5-1.3,3.7l4.6,8.5c0.6,1.3,2.4,1.9,4.1,1.4
						l15.5-4.4c5.8,7.7,13.6,14.1,22.8,18.6l-3.7,13c-0.4,1.5,0.5,3.1,2,3.4l10.1,3.3c1.4,0.6,3.3,0,4.1-1.4l7.3-11.9
						c4.1,0.7,8.4,1.1,12.7,1.1v-16.9c-25.1-0.2-45.8-17.4-46.8-39.3c-1-22.6,19.4-41.5,45.4-42.4c0.5,0,0.9,0,1.3,0v-16.9
						c-0.7,0-1.4,0-2,0C226.3,175.7,221.7,176.3,217.3,177.2z"/>
					<path class="st8" d="M209.2,234.1c0.5,11.2,11,20,23.8,20.2v-11c-6-0.2-10.9-4.3-11.1-9.6c-0.2-5.5,4.8-10.2,11.1-10.4
						c0,0,0,0,0,0v-11c-0.2,0-0.3,0-0.5,0C219.1,212.8,208.7,222.5,209.2,234.1z"/>
				</g>
			</g>
		</g>
		
			<linearGradient id="SVGID_5_" gradientUnits="userSpaceOnUse" x1="13.8801" y1="-2.7968" x2="106.2175" y2="-60.5956" gradientTransform="matrix(0.7975 -0.3153 -0.3153 0.5089 104.6821 162.9521)">
			<stop  offset="0.2033" style="stop-color:#FFFFFF"/>
			<stop  offset="0.3034" style="stop-color:#E6E6E6"/>
			<stop  offset="0.5169" style="stop-color:#A5A5A5"/>
			<stop  offset="0.8241" style="stop-color:#3E3E3E"/>
			<stop  offset="1" style="stop-color:#000000"/>
		</linearGradient>
		<polygon class="st9" points="217.7,123.5 118.4,177.1 107.3,132.4 195,89.1 		"/>
		<g>
			<g>
				<path class="st3" d="M212.9,123.6c3.6,1.1,5,0.5,5.7-0.3c2.8-3.1,6.1-6.6,12.1-8.7c5.2-1.9,11.4-2.3,24,3.6
					c13.2,6,35.4,19.4,38.3,25.2c2.8,5.8-2.1,15.7-2.1,15.7c-0.9,1.8-0.4,4.4,1.2,5.8l27,24.6c1.5,1.4,3.8,1.3,5-0.3
					c0,0,10.9-14.2,11.8-21.9c0.9-7.8-0.7-14-23.7-32.7c-23.1-18.7-63.3-38-86.6-43.4c-22.8-5.3-29.3-5.7-39.7,4.5
					c-8.7,8.5-12.1,14.6-12.1,14.6c-1,1.8,0,3.6,2.2,4.2L212.9,123.6z"/>
			</g>
		</g>
	</g>
</g>
</svg>
