<?xml version="1.0" encoding="utf-8"?>
<!-- Generator: Adobe Illustrator 21.0.0, SVG Export Plug-In . SVG Version: 6.00 Build 0)  -->
<svg version="1.1" id="Layer_1" xmlns="http://www.w3.org/2000/svg" xmlns:xlink="http://www.w3.org/1999/xlink" x="0px" y="0px"
	 viewBox="0 0 400 400" style="enable-background:new 0 0 400 400;" xml:space="preserve">
<style type="text/css">
	.st0{opacity:0.78;fill:#FFFFFF;}
	.st1{fill:#41AACE;}
	.st2{opacity:0.5;fill:url(#SVGID_1_);}
	.st3{fill:#003768;}
	.st4{fill:#BDDBE0;}
	.st5{fill:#FFFFFF;}
	.st6{clip-path:url(#SVGID_3_);}
	.st7{fill:#006E99;}
	.st8{opacity:0.4;fill:url(#SVGID_4_);}
	.st9{fill:#185F93;}
	.st10{opacity:0.5;fill:url(#SVGID_5_);}
	.st11{opacity:0.5;fill:url(#SVGID_6_);}
	.st12{fill:#A9CDD3;}
	.st13{opacity:0.4;fill:url(#SVGID_7_);}
	.st14{fill-rule:evenodd;clip-rule:evenodd;fill:#BDDBE0;}
	.st15{opacity:0.5;fill:url(#SVGID_8_);}
	.st16{fill-rule:evenodd;clip-rule:evenodd;fill:#006E99;}
	.st17{fill-rule:evenodd;clip-rule:evenodd;fill:#D1E6E8;}
	.st18{fill-rule:evenodd;clip-rule:evenodd;fill:#F46300;}
	.st19{fill-rule:evenodd;clip-rule:evenodd;fill:#F74C0F;}
	.st20{fill-rule:evenodd;clip-rule:evenodd;fill:#FFFFFF;}
</style>
<g>
	<g>
		<path class="st0" d="M361.6,283.5c0,2.7-2.1,6-4.6,7.3l-146,76.9c-2.6,1.3-6.7,1.3-9.3,0l-146-76.9c-2.6-1.3-4.6-4.6-4.6-7.3
			V129.7c0-2.7,2.1-6,4.6-7.3l146-76.9c2.5-1.3,6.7-1.3,9.3,0l146,76.9c2.5,1.3,4.6,4.6,4.6,7.3V283.5z"/>
		<path class="st1" d="M357.8,281.6c0,2.6-2,5.8-4.5,7.1l-142.4,75c-2.5,1.3-6.6,1.3-9,0l-142.4-75c-2.5-1.3-4.5-4.5-4.5-7.1v-150
			c0-2.6,2-5.8,4.5-7.1l142.4-75c2.5-1.3,6.5-1.3,9,0l142.4,75c2.5,1.3,4.5,4.5,4.5,7.1V281.6z"/>
		<path class="st1" d="M357.8,281.6c0,2.6-2,5.8-4.5,7.1l-142.4,75c-2.5,1.3-6.6,1.3-9,0l-142.4-75c-2.5-1.3-4.5-4.5-4.5-7.1v-150
			c0-2.6,2-5.8,4.5-7.1l142.4-75c2.5-1.3,6.5-1.3,9,0l142.4,75c2.5,1.3,4.5,4.5,4.5,7.1V281.6z"/>
		<g>
			<linearGradient id="SVGID_1_" gradientUnits="userSpaceOnUse" x1="232.9016" y1="215.1531" x2="303.8839" y2="130.5596">
				<stop  offset="0.2033" style="stop-color:#FFFFFF"/>
				<stop  offset="0.3034" style="stop-color:#E6E6E6"/>
				<stop  offset="0.5169" style="stop-color:#A5A5A5"/>
				<stop  offset="0.8241" style="stop-color:#3E3E3E"/>
				<stop  offset="1" style="stop-color:#000000"/>
			</linearGradient>
			<polygon class="st2" points="344.4,215.5 259.9,262.7 176.1,149.6 272.6,98.3 			"/>
			<g>
				<path class="st3" d="M342.5,188.8v-0.5c-2.7-16.5-7.3-19-34.6-30.7l-35.7,0.7c-27.3,8.4-34.3,14.1-36.7,32.8l-3,24.8h112.6
					L342.5,188.8z"/>
				<g>
					<polygon class="st4" points="274.2,149.7 271.8,158 288.6,170.4 288.1,151.1 					"/>
					<polygon class="st5" points="302.2,150 304.7,158.2 287.8,170.6 288.3,151.3 					"/>
				</g>
				<path class="st5" d="M276.2,157.2c5.1,3.7,8.3,7,13.3,6.5c5.1-0.5,11.9-5.4,13.5-8.7c1.4,1.4,6.6,4.7,6.6,4.7l-9,12.7
					l-12.9,33.6l-12-34.2l-8.9-11.5L276.2,157.2z"/>
				<polygon class="st5" points="272.8,154 266.6,160.4 269.2,173.7 282.6,161.2 				"/>
				<polygon class="st5" points="304.7,153.8 311.5,161.4 308.9,174.7 295.7,161.7 				"/>
				<g>
					<defs>
						<polygon id="SVGID_2_" points="271.5,160.2 287.9,206.3 305.2,160.8 						"/>
					</defs>
					<clipPath id="SVGID_3_">
						<use xlink:href="#SVGID_2_"  style="overflow:visible;"/>
					</clipPath>
					<g class="st6">
						<g>
							<g>
								<g>
									<polygon class="st1" points="292.8,173.4 289.1,173.4 289.1,164.6 296.5,164.6 296.5,168.4 									"/>
									<polygon class="st1" points="293.3,172.1 299.8,227.9 289.5,235.2 289.3,235 289,172.1 									"/>
									<polygon class="st7" points="286.3,173.4 289.4,173.4 289.4,164.6 281.9,164.6 281.9,168.4 									"/>
									<polygon class="st7" points="285.8,172.1 279.3,227.9 289.5,235.2 289.4,172.1 									"/>
								</g>
								<polygon class="st7" points="293.5,173.3 285.7,173.3 285.7,172.7 293.4,172.7 								"/>
							</g>
						</g>
					</g>
				</g>
				
					<linearGradient id="SVGID_4_" gradientUnits="userSpaceOnUse" x1="500.2553" y1="253.8209" x2="528.2224" y2="223.8298" gradientTransform="matrix(0.463 -0.5924 0.9498 0.7424 -179.4085 292.2179)">
					<stop  offset="0.1044" style="stop-color:#FFFFFF"/>
					<stop  offset="0.206" style="stop-color:#FBFBFB"/>
					<stop  offset="0.2967" style="stop-color:#F1F1F1"/>
					<stop  offset="0.3832" style="stop-color:#DEDEDE"/>
					<stop  offset="0.4673" style="stop-color:#C5C5C5"/>
					<stop  offset="0.5494" style="stop-color:#A4A4A4"/>
					<stop  offset="0.6302" style="stop-color:#7B7B7B"/>
					<stop  offset="0.71" style="stop-color:#4B4B4B"/>
					<stop  offset="0.7869" style="stop-color:#141414"/>
					<stop  offset="0.8132" style="stop-color:#000000"/>
				</linearGradient>
				<polygon class="st8" points="303.5,151.4 269.2,182.5 266.1,160.5 272.9,153.8 276,145.3 				"/>
				<g>
					<g>
						<g>
							<g>
								<path class="st5" d="M272.4,149.8c0.7,0.8,1.4,1.6,2.1,2.3c0,0,0,0,0,0C273.7,151.4,273,150.7,272.4,149.8z"/>
							</g>
							<path class="st4" d="M315.5,128.7c0-2.8-0.9-3.9-2.4-4.4c0.4-5.7,1.3-11.8-1-16c-4.4-8-16.4-12.9-24.7-12.9
								c-7.9,0-18,4.2-22.4,11.7c-2.7,4.6-1.3,10.6-1,16.8c-1.7,0.4-2.7,1.5-2.7,4.5c0,4.4,2.2,11.3,5.6,12.3
								c0.4,1.1,0.9,2.1,1.4,3.1c0,0.1,0.1,0.1,0.1,0.2c1.2,2.1,2.5,4.1,3.9,5.8c0.7,0.8,1.4,1.6,2.1,2.3c0,0,0,0,0,0
								c4.1,4.1,9,6.4,14.2,6.4c8,0,15.1-5.5,19.9-14.2c0.4-0.6,0.8-1.2,1.3-1.7c0.3-0.7,0.6-1.3,0.8-2
								C313.6,139,315.5,132.8,315.5,128.7z"/>
						</g>
					</g>
					<g>
						<g>
							<path class="st5" d="M308.6,144.4c0.4-0.6,0.8-1.2,1.3-1.7c0.3-0.6,0.6-1.3,0.8-2c3-1.7,4.8-7.9,4.8-12
								c0-2.8-0.9-3.9-2.4-4.4c0.4-5.7,1.3-11.8-1-16c-4.3-7.9-16.1-12.8-24.4-12.9v63.1c0.3,0,0.6,0.1,1,0.1
								C296.6,158.6,303.7,153.1,308.6,144.4z"/>
						</g>
					</g>
					<g>
						<path class="st3" d="M303.2,105.8c0.5,3.7-7.1,3.5-12.1,2.8c-5-0.8-8,0.2-12.7,1.4c-4.8,1.2-9.4,5.7-10.1,8
							c-0.4,1.3-0.1,7.8-0.1,7.8l-4.2-1.8c0,0-1.9-9.5-0.4-15.5c1.5-5.8,5.2-10.5,17.1-12.9c10.8-2.1,18.4-0.8,18.7,1.6
							c0.8,0.2,1.5-0.5,2.5-0.5c2.5,0,7.3,2.7,9.5,5.9c2.2,3.2,4.3,9.1,2.8,19.1c-0.3,2.6-0.9,3.3-0.9,3.3l-3.5,1.8
							c0,0,1.6-12.6-4.2-16.2C303.8,109.4,303.2,105.8,303.2,105.8z"/>
						<g>
							<g>
								<g>
									<path class="st9" d="M305.5,110.4c5.7,3.7,4.1,16.2,4.1,16.2l3.5-1.8c0,0,0.6-0.7,0.9-3.3c1.5-10-0.6-15.9-2.8-19.1
										c-2.2-3.2-7-5.9-9.5-5.9c-0.5,0-1.9,0.3-2.3,0.5c1.1,3.2,3.6,7.9,3.5,8.7C303.1,105.7,303.7,109.3,305.5,110.4z"/>
								</g>
								<g>
									<path class="st9" d="M303.1,105.7c0,0.2,0,0.5-0.1,0.8C303.1,106.3,303.2,106,303.1,105.7z"/>
								</g>
							</g>
						</g>
					</g>
				</g>
				<g>
					<g>
						<path class="st3" d="M325.5,125.6c-0.6-1.4-1.1-2.7-1.7-3.5c0.3-1.7,0.4-3.3,0.4-5.1c0-17.9-15.7-32.5-35.1-32.5
							c-19.4,0-35.1,14.5-35.1,32.5c0,1.8,0.2,3.5,0.5,5.2c-0.6,0.9-1.1,2.1-1.7,3.5c-0.8,2-0.3,11.8,0.7,13.2
							c1.9,2.5,6.9,4.4,10.1,4.7c0.4,0.4,1,0.6,1.6,0.6c1.1-0.1,1.8-0.9,1.8-1.9l-1.8-17.6c-0.1-0.9-1-1.6-2.1-1.5
							c-0.5,0-0.9,0.3-1.2,0.5c-0.2,0-0.3,0-0.5,0c-1-0.1-2.6-1.1-3.3-2.3c-0.2-1.4-0.4-2.9-0.4-4.4c0-16,14-27,31.3-27
							c17.3,0,31.3,11,31.3,27c0,1.5-0.1,3-0.4,4.4c-0.7,1.1-2.2,2.1-3.2,2.1c-0.2,0-0.4,0-0.5,0c-0.3-0.3-0.7-0.5-1.2-0.5
							c-1.1-0.1-2,0.6-2.1,1.5l-1.8,17.6c-0.1,0.9,0.7,1.8,1.7,1.9c0.6,0.1,1.2-0.2,1.6-0.6c3.2-0.4,8.3-2.3,10.1-4.7
							C325.8,137.5,326.4,127.7,325.5,125.6z"/>
						<path class="st3" d="M323.8,132.1c-2.1-1.5-2.8,0-2.8,0c-1.1,1.8-7.6,10.1-21.6,13.7c-1-1-2.8-1.7-5-1.7
							c-3.2,0-5.7,1.4-5.7,3.1s2.6,3.1,5.7,3.1c3.1,0,5.7-1.4,5.7-3.1C304.9,146,317.2,141.9,323.8,132.1z"/>
					</g>
				</g>
			</g>
		</g>
		<linearGradient id="SVGID_5_" gradientUnits="userSpaceOnUse" x1="45.0441" y1="203.7688" x2="120.9467" y2="156.2574">
			<stop  offset="0.2033" style="stop-color:#FFFFFF"/>
			<stop  offset="0.3034" style="stop-color:#E6E6E6"/>
			<stop  offset="0.5169" style="stop-color:#A5A5A5"/>
			<stop  offset="0.8241" style="stop-color:#3E3E3E"/>
			<stop  offset="1" style="stop-color:#000000"/>
		</linearGradient>
		<polygon class="st10" points="142.6,198.1 54.6,232.4 54.8,142.3 76.9,130.5 		"/>
		<linearGradient id="SVGID_6_" gradientUnits="userSpaceOnUse" x1="106.2287" y1="307.5454" x2="257.2419" y2="127.5749">
			<stop  offset="6.043960e-02" style="stop-color:#FFFFFF"/>
			<stop  offset="0.3918" style="stop-color:#A1A1A1"/>
			<stop  offset="0.8129" style="stop-color:#2E2E2E"/>
			<stop  offset="1" style="stop-color:#000000"/>
		</linearGradient>
		<polygon class="st11" points="213.2,113.3 234.5,121.7 246.6,135.3 249.8,168.3 281.2,275.9 163.2,343.5 56.2,289.9 54.6,192.2 
			180.7,123.2 		"/>
		<g>
			<polygon class="st3" points="241.9,141 267.9,228.4 221.4,220.3 220.9,175.8 			"/>
			<polygon class="st3" points="174.9,145.9 154.4,226.6 201.5,252.2 198.5,156.7 			"/>
			<g>
				<path class="st4" d="M194.3,192.3c-0.4,5.5-4.2,17-9.9,20.8c6.1,9.7,19.7,20.1,25.8,20.8c-0.4-21.1,0-41.5,0-41.5H194.3z"/>
				<path class="st5" d="M225.8,192.3c0.4,5.5,4.2,17,9.9,20.8c-6.1,9.7-19.7,20.1-25.8,20.8c0.4-21.1,0-41.5,0-41.5H225.8z"/>
			</g>
			<path class="st4" d="M277.8,246.9v-0.7c-3.4-20.7-9.4-21.4-43.3-38.5l-25.9,15.4l-18.7-14.5c-33.6,13.5-42.9,17.6-46,41.1
				l-3.8,26.5h141L277.8,246.9z"/>
			<polygon class="st5" points="229.5,203.6 240.5,210.8 229.6,229.5 214,213.9 			"/>
			<g>
				<path class="st12" d="M189.5,207.6c-33.6,13.5-41.8,16.7-44.8,40.2l-4.6,28.4h69.8v-53.9l-1.3,0.8L189.5,207.6z"/>
			</g>
			<path class="st5" d="M194.8,207.3c6.4,4.6,10.3,8.8,16.7,8.1c6.4-0.6,14.8-6.7,16.9-10.9c1.7,1.7,8.2,5.8,8.2,5.8l-12,13.9
				l-14,19.7l-15.6-21.9L183.2,211L194.8,207.3z"/>
			<polygon class="st5" points="190.6,203.3 182.2,210.7 191.2,230.7 208.2,214.2 			"/>
			
				<linearGradient id="SVGID_7_" gradientUnits="userSpaceOnUse" x1="386.1669" y1="228.6603" x2="415.7027" y2="196.987" gradientTransform="matrix(0.463 -0.5924 0.9498 0.7424 -179.4085 292.2179)">
				<stop  offset="0.1044" style="stop-color:#FFFFFF"/>
				<stop  offset="0.206" style="stop-color:#FBFBFB"/>
				<stop  offset="0.2967" style="stop-color:#F1F1F1"/>
				<stop  offset="0.3832" style="stop-color:#DEDEDE"/>
				<stop  offset="0.4673" style="stop-color:#C5C5C5"/>
				<stop  offset="0.5494" style="stop-color:#A4A4A4"/>
				<stop  offset="0.6302" style="stop-color:#7B7B7B"/>
				<stop  offset="0.71" style="stop-color:#4B4B4B"/>
				<stop  offset="0.7869" style="stop-color:#141414"/>
				<stop  offset="0.8132" style="stop-color:#000000"/>
			</linearGradient>
			<polygon class="st13" points="226.8,194.2 192,231.4 181.8,210.9 191.4,202.3 194.6,192.4 			"/>
			<g>
				<g>
					<path class="st4" d="M182.5,138.1c-3.4,5.8-1.7,13.4-1.2,21.1c-2.1,0.5-3.3,1.9-3.3,5.6c0,5.5,2.7,14.2,7,15.5
						c0.5,1.3,1.1,2.6,1.8,3.9c0,0.1,0.1,0.2,0.1,0.2c1.5,2.7,3.1,5.1,4.9,7.3c0.9,1,1.7,2,2.7,2.9c4.7,4.7,10.2,7.5,16.1,8v-79.2
						C200.6,123.5,188,128.8,182.5,138.1z"/>
					<path class="st5" d="M210.2,123.5v79.2c5.9-0.5,11.4-3.3,16.1-8c0.9-0.9,1.8-1.9,2.7-2.9c1.8-2.2,3.4-4.6,4.9-7.3
						c0-0.1,0.1-0.1,0.1-0.2c0.7-1.3,1.3-2.6,1.8-3.9c4.3-1.2,7-10,7-15.5c0-3.7-1.2-5.1-3.3-5.6c0.4-7.8,2.2-15.4-1.2-21.1
						C232.6,128.8,220.1,123.5,210.2,123.5z"/>
				</g>
				<path class="st3" d="M210.1,122.6c-6.8-2.1-21.7,1.6-28.4,9.4c-9.9,11.4-9.9,31.1-9.9,31.1l12.5-1.6c0,0,3.7-14.1,17.3-18.9
					C212,139,210.1,122.6,210.1,122.6z"/>
				<path class="st9" d="M196.5,134.7c2.3,10.4,24.5,9.5,32.1,12.9c7.6,3.5,7.5,13.5,7.5,13.5l6.5-1.7c0,0,6.5-17.1-7.6-28.4
					c-13.7-11.1-30.2-9.4-36.2-8C192.6,124.4,196.5,134.7,196.5,134.7z"/>
			</g>
			<g>
				<g>
					<path class="st3" d="M249.6,167.3c-2.5-1.8-3.4,0-3.4,0c-1.3,2.2-9.1,12.1-26,16.6c-1.1-1.2-3.4-2-6-2c-3.8,0-6.9,1.7-6.9,3.7
						c0,2,3.1,3.7,6.9,3.7c3.8,0,6.8-1.6,6.9-3.7C226.9,184,241.6,179,249.6,167.3z"/>
					<path class="st5" d="M253.7,160.4c-0.7-1.7-1.3-3.2-2-4.3c0.3-2,0.5-4,0.5-6.1c0-21.6-18.9-39.1-42.2-39.1
						c-23.3,0-42.2,17.5-42.2,39.1c0,2.1,0.2,4.2,0.6,6.3c-0.7,1-1.3,2.5-2,4.2c-1,2.4-0.4,14.3,0.9,15.9c2.2,3,8.4,5.3,12.2,5.7
						c0.5,0.5,1.1,0.8,1.9,0.7c1.3-0.1,2.2-1.1,2.1-2.2l-2.1-21.2c-0.1-1.1-1.2-2-2.5-1.9c-0.6,0.1-1.1,0.3-1.4,0.6
						c-0.2,0-0.4,0-0.6-0.1c-1.2-0.1-3.2-1.3-3.9-2.7c-0.3-1.7-0.5-3.5-0.5-5.3c0-19.3,16.9-32.5,37.7-32.5
						c20.8,0,37.7,13.2,37.7,32.5c0,1.8-0.2,3.6-0.5,5.3c-0.8,1.3-2.6,2.5-3.8,2.6c-0.2,0-0.4,0-0.6,0.1c-0.4-0.3-0.9-0.6-1.4-0.6
						c-1.3-0.1-2.4,0.7-2.5,1.8l-2.1,21.3c-0.1,1.1,0.8,2.1,2.1,2.2c0.8,0.1,1.4-0.2,1.9-0.7c3.9-0.4,10-2.7,12.2-5.7
						C254.1,174.7,254.7,162.8,253.7,160.4z"/>
				</g>
			</g>
		</g>
		<g>
			<path class="st3" d="M196.9,293.6h-7.1l-5.8,8.1H40.8c-2.5,0-4.1,0.3-3.7,0.6L36.2,316c0.3,0.2,2.1,0.4,4.1,0.4h134.4
				c2,0,3.9-0.2,4.2-0.4l17.9-13.7c0.1-0.1,0-0.1,0-0.2l0.1,0V293.6z"/>
			<path class="st4" d="M178.9,307.5c-0.3,0.2-2.2,0.4-4.2,0.4H40.4c-2,0-3.9-0.2-4.1-0.4l0.9-13.7c-0.4-0.4,1.2-0.6,3.7-0.6h152.4
				c2.5,0,4.1,0.3,3.6,0.6L178.9,307.5z"/>
			<path class="st3" d="M177.3,313.3c0,1.8-1.6,3.3-3.6,3.3H39.3c-2,0-3.6-1.5-3.6-3.3v-86.6c0-1.8,1.6-3.3,3.6-3.3h134.4
				c2,0,3.6,1.5,3.6,3.3V313.3z"/>
		</g>
		<g>
			<g>
				<polygon class="st5" points="76.3,130.2 76.3,178 89.2,186.7 96,198.1 142.8,198.1 142.8,129.9 				"/>
				<g>
					<polygon class="st4" points="76.4,178.1 96,198.1 95.1,177.5 					"/>
				</g>
			</g>
			<g>
				<rect x="90.1" y="144.2" class="st14" width="20.3" height="1.1"/>
				<rect x="90.1" y="149.2" class="st14" width="20.3" height="1.1"/>
				<rect x="90.1" y="154.3" class="st14" width="20.3" height="1.1"/>
				<rect x="90.1" y="159.3" class="st14" width="20.3" height="1.1"/>
				<rect x="90.1" y="164.4" class="st14" width="43.1" height="1.1"/>
				<rect x="90.1" y="171.1" class="st14" width="43.1" height="1.1"/>
			</g>
		</g>
		<g>
			<linearGradient id="SVGID_8_" gradientUnits="userSpaceOnUse" x1="89.8006" y1="162.3868" x2="126.7185" y2="142.4872">
				<stop  offset="0.2033" style="stop-color:#FFFFFF"/>
				<stop  offset="0.3034" style="stop-color:#E6E6E6"/>
				<stop  offset="0.5169" style="stop-color:#A5A5A5"/>
				<stop  offset="0.8241" style="stop-color:#3E3E3E"/>
				<stop  offset="1" style="stop-color:#000000"/>
			</linearGradient>
			<polygon class="st15" points="123.6,156.4 69.3,177 67.2,162.3 120,144 			"/>
			<g>
				<path class="st16" d="M121.4,153.1c0,0,1.4,3.7,1.9,3.6c0.5-0.1,1.9-3.8,1.9-3.8L121.4,153.1z"/>
				<polygon class="st17" points="129.1,144.7 129.1,143.9 117.7,143.9 117.6,144.7 121.6,153.7 124.9,153.7 				"/>
				<path class="st18" d="M129.1,67.1h-11.6V63l0-0.1c0.2-1.4,2.7-2.5,5.8-2.5c3.1,0,5.6,1.1,5.8,2.5l0,0.1V67.1z"/>
				<rect x="117.6" y="71.7" class="st19" width="11.6" height="73.1"/>
				<rect x="121" y="71.7" class="st18" width="5" height="73.1"/>
				<g>
					<path class="st19" d="M117.6,67.1V63l0-0.1c0.1-1,1.4-1.8,3.4-2.3v6.4L117.6,67.1z"/>
				</g>
				<g>
					<rect x="117.6" y="65.8" class="st20" width="11.6" height="14.7"/>
					<rect x="117.6" y="65.8" class="st17" width="3.5" height="14.7"/>
				</g>
			</g>
		</g>
	</g>
</g>
</svg>
