<?xml version="1.0" encoding="utf-8"?>
<!-- Generator: Adobe Illustrator 21.0.0, SVG Export Plug-In . SVG Version: 6.00 Build 0)  -->
<svg version="1.1" id="Layer_1" xmlns="http://www.w3.org/2000/svg" xmlns:xlink="http://www.w3.org/1999/xlink" x="0px" y="0px"
	 viewBox="0 0 400 400" style="enable-background:new 0 0 400 400;" xml:space="preserve">
<style type="text/css">
	.st0{opacity:0.78;fill:#FFFFFF;}
	.st1{fill:#41AACE;}
	.st2{opacity:0.5;fill:url(#SVGID_1_);}
	.st3{fill:#006E99;}
	.st4{fill:#003768;}
	.st5{fill:#FFFFFF;}
	.st6{fill:#A9CDD3;}
	.st7{fill:#BDDBE0;}
	.st8{fill:#F74C0F;}
	.st9{opacity:0.5;fill:url(#SVGID_2_);}
	.st10{opacity:0.5;fill:url(#SVGID_3_);}
	.st11{fill:#D1E6E8;}
	.st12{fill:#FF8B0D;}
</style>
<g>
	<g>
		<g>
			<path class="st0" d="M347.1,280.3c0,2.6-2.1,5.9-4.6,7.2l-143.8,75.8c-2.5,1.3-6.6,1.3-9.1,0L45.8,287.5
				c-2.5-1.3-4.6-4.6-4.6-7.2V128.6c0-2.6,2-5.9,4.6-7.2l143.8-75.8c2.5-1.3,6.6-1.3,9.1,0l143.8,75.8c2.5,1.3,4.6,4.6,4.6,7.2
				V280.3z"/>
			<path class="st1" d="M343.4,278.4c0,2.6-2,5.7-4.4,7l-140.3,74c-2.5,1.3-6.5,1.3-8.9,0l-140.3-74c-2.5-1.3-4.5-4.5-4.5-7v-148
				c0-2.6,2-5.8,4.5-7l140.3-74c2.4-1.3,6.5-1.3,8.9,0l140.3,74c2.4,1.3,4.4,4.5,4.4,7V278.4z"/>
			<g>
				
					<linearGradient id="SVGID_1_" gradientUnits="userSpaceOnUse" x1="-197.7073" y1="195.4671" x2="231.7369" y2="116.5169" gradientTransform="matrix(0.4969 -0.3191 0.5403 0.8415 90.9738 115.4025)">
					<stop  offset="0.3846" style="stop-color:#FFFFFF"/>
					<stop  offset="0.462" style="stop-color:#E6E6E6"/>
					<stop  offset="0.6269" style="stop-color:#A5A5A5"/>
					<stop  offset="0.8641" style="stop-color:#3E3E3E"/>
					<stop  offset="1" style="stop-color:#000000"/>
				</linearGradient>
				<polygon class="st2" points="356.7,248.1 170.6,349 47.7,280.2 45.3,193.2 227.5,97.2 				"/>
				<g>
					<g>
						<g>
							<g>
								<g>
									<path class="st3" d="M339.2,85.4c-3,1-4.2,1.7-4.8,2.3c-0.5,0.5-1.7,2.1-1.7,5.5c0,2.5-0.5,18.4,3.9,28.6
										c0.4,0.8,1.3,0.5,1.7-0.1c0.6-0.8,1.5-6.2,0.9-6.7c-0.6-0.4-1.9-0.9-2.5-1.9c-0.6-1,0.1-17.7,0.5-18.6
										c0.3-0.9,1.4-0.7,2.2-0.6C338.7,90.2,339.2,85.4,339.2,85.4z"/>
								</g>
							</g>
						</g>
						<g>
							<path class="st4" d="M355.6,95.4H228.3c-1.2,0-2.2,0.9-2.2,2v150.7c0,1.1,1,2,2.2,2h127.2c1.2,0,2.2-0.9,2.2-2V97.4
								C357.8,96.3,356.8,95.4,355.6,95.4z"/>
							<path class="st5" d="M340.8,216.3c0,0-14.3,13.9-14.1,13.9h-81.9c-0.9,0-1.6-0.7-1.6-1.5V116.9c0-0.8,0.7-1.5,1.6-1.5h94.4
								c0.9,0,1.6,0.7,1.6,1.5V216.3z"/>
							<path class="st6" d="M314.9,91.8H269c-1.1,0-2,0.8-2,1.9c0,1,0.9,1.9,2,1.9h3.6c-0.5,0.7-0.8,1.5-0.8,2.4
								c0,2.4,2.1,4.4,4.8,4.4h30.7c2.7,0,4.8-2,4.8-4.4c0-0.9-0.3-1.7-0.8-2.4h3.5c1.1,0,2-0.8,2-1.9
								C316.9,92.6,316,91.8,314.9,91.8z"/>
							<rect x="257.3" y="132" class="st7" width="69.2" height="2.6"/>
							<rect x="257.3" y="143" class="st7" width="69.2" height="2.6"/>
							<rect x="257.3" y="154.8" class="st7" width="69.2" height="2.6"/>
							<rect x="257.3" y="165.8" class="st7" width="69.2" height="2.6"/>
							<rect x="257.3" y="177.6" class="st7" width="69.2" height="2.6"/>
							<rect x="257.3" y="188.6" class="st7" width="69.2" height="2.6"/>
							<rect x="257.3" y="200.4" class="st7" width="69.2" height="2.6"/>
							<g>
								<path class="st6" d="M328.2,216.2h12.6l-14.2,14v-12.5C326.6,216.9,327.3,216.2,328.2,216.2z"/>
							</g>
						</g>
						<g>
							<g>
								<path class="st7" d="M346.6,195.7c0,0-1,2.2-1.5,2.2c-0.5,0-1.6-2.3-1.6-2.3L346.6,195.7z"/>
								<path class="st5" d="M346.6,195.8c1.2-2.5,2.2-10.4,2.4-11.9l-7.8,0c0.1,2.4,1.7,10.2,2.3,11.9
									C345.3,195.8,346.3,195.8,346.6,195.8z"/>
								<path class="st7" d="M348.9,184.2c0.8-3.7,2.4-56.2,2.4-56.2l-13,0c0,0,2.1,52.6,2.9,56.3
									C345.8,184.3,348.1,184.2,348.9,184.2z"/>
								<path class="st3" d="M344.8,85.9L344.8,85.9C344.8,85.9,344.8,85.9,344.8,85.9l6.6-0.4c0-0.5,0.5-7.6-6.5-7.7l0,0
									c0,0,0,0,0,0c0,0,0,0,0,0l0,0c-7,0.1-6.5,7.2-6.5,7.7L344.8,85.9C344.8,85.9,344.8,85.9,344.8,85.9L344.8,85.9z"/>
								<path class="st7" d="M344.8,126.3l1.8,0.2v-0.3l4.8-0.1c0-0.4,0.4-39.8-0.1-41.7c-3-0.1-5.2-0.1-6.6,0c-1.4,0-3.5,0-6.5,0
									c-0.5,1.9,0.2,41,0.2,41.4l4.5,0.5v0.3L344.8,126.3z"/>
								<path class="st3" d="M338.2,128.5c-0.2,0-0.3-0.1-0.3-0.2v-3c0-0.1,0.1-0.2,0.3-0.2h13.6c0.1,0,0.3,0.1,0.3,0.2v3
									c0,0.1-0.1,0.2-0.3,0.2H338.2z"/>
							</g>
						</g>
					</g>
					<polygon class="st8" points="270.2,197.9 275.7,197.9 282.1,209.9 293.6,188.9 299.5,188.9 282.1,218.6 					"/>
				</g>
			</g>
			
				<linearGradient id="SVGID_2_" gradientUnits="userSpaceOnUse" x1="-190.384" y1="223.9747" x2="77.4295" y2="174.7391" gradientTransform="matrix(0.4969 -0.3191 0.5403 0.8415 90.9738 115.4025)">
				<stop  offset="0.2418" style="stop-color:#FFFFFF"/>
				<stop  offset="0.3371" style="stop-color:#E6E6E6"/>
				<stop  offset="0.5403" style="stop-color:#A5A5A5"/>
				<stop  offset="0.8326" style="stop-color:#3E3E3E"/>
				<stop  offset="1" style="stop-color:#000000"/>
			</linearGradient>
			<polygon class="st9" points="285.4,314 196,360.8 55.9,288.4 175.9,208.7 			"/>
			<linearGradient id="SVGID_3_" gradientUnits="userSpaceOnUse" x1="108.3095" y1="144.1548" x2="183.1905" y2="52.2284">
				<stop  offset="0.2418" style="stop-color:#FFFFFF"/>
				<stop  offset="0.3371" style="stop-color:#E6E6E6"/>
				<stop  offset="0.5403" style="stop-color:#A5A5A5"/>
				<stop  offset="0.8326" style="stop-color:#3E3E3E"/>
				<stop  offset="1" style="stop-color:#000000"/>
			</linearGradient>
			<polygon class="st10" points="173.8,78.4 208.7,85 209.9,107 108,159.5 49.3,129.1 167.4,68.6 			"/>
			<g>
				<path class="st5" d="M182.7,95.3c-2.8,0.1-5,2.3-4.9,4.9c0.1,2.6,2.5,4.6,5.3,4.5c2.8-0.1,5-2.3,4.9-4.9
					C187.9,97.2,185.6,95.2,182.7,95.3z M182.1,80.8c-11.6,0.4-20.6,9.3-20.2,19.8c0.4,10.6,10.2,18.8,21.7,18.4
					c11.6-0.4,20.6-9.3,20.2-19.8C203.4,88.7,193.7,80.4,182.1,80.8z M183.3,109.8c-5.9,0.2-10.9-4-11.2-9.5
					c-0.2-5.4,4.4-10,10.4-10.2c5.9-0.2,10.9,4,11.2,9.5C193.9,105,189.3,109.6,183.3,109.8z M218.9,109.8l-1.7,4.1
					c-0.2,0.6-1,1-1.8,0.8l-6.6-1.5c-2.4,3.8-5.7,7.1-9.8,9.5l2,5.7c0.2,0.7-0.1,1.4-0.8,1.7l-4.4,1.9c-0.6,0.3-1.5,0.1-1.9-0.5
					l-3.6-5.3c-2,0.5-4.2,0.8-6.4,0.9c-2.4,0.1-4.7-0.1-6.9-0.5l-3.3,5.6c-0.4,0.6-1.2,0.9-1.8,0.7l-4.5-1.6
					c-0.7-0.2-1.1-0.9-0.9-1.6l1.6-6.1c-4.1-2.1-7.6-5.1-10.1-8.7l-6.9,2.1c-0.8,0.2-1.6-0.1-1.8-0.7l-2.1-4
					c-0.4-0.6-0.1-1.3,0.6-1.7l6.3-3.7c-0.5-1.9-0.8-3.8-0.9-5.8c-0.1-2.3,0.1-4.6,0.7-6.8l-6.7-3.3c-0.7-0.3-1-1.1-0.7-1.7l1.7-4.1
					c0.2-0.6,1-1,1.8-0.8l7.5,1.7c2.3-3.5,5.5-6.5,9.3-8.8l-2.5-6.5c-0.3-0.7,0-1.4,0.7-1.7l4.3-2c0.6-0.3,1.5-0.1,1.9,0.5l4.5,6
					c0,0,0,0.1,0.1,0.1c1.9-0.4,4-0.7,6.1-0.8c2.3-0.1,4.5,0.1,6.6,0.5c0,0,0,0,0,0l4-6.3c0.4-0.6,1.2-0.9,1.9-0.6l4.4,1.7
					c0.7,0.2,1,0.9,0.8,1.6l-2,6.7c3.7,1.9,7,4.6,9.5,7.8l6.8-2.1c0.8-0.2,1.6,0.1,1.8,0.7l2.1,4c0.3,0.6,0.1,1.3-0.6,1.7l-5.9,3.4
					c0.7,2.2,1.2,4.6,1.3,7c0.1,2.1-0.1,4.1-0.5,6.1l6.1,3C218.8,108.4,219.2,109.2,218.9,109.8z"/>
				<g>
					<g>
						<path class="st11" d="M175.7,73.7c0-0.1,0-0.1-0.1-0.1l-4.5-6c-0.5-0.6-1.3-0.8-1.9-0.5l-4.3,2c-0.7,0.2-1,1-0.7,1.7l2.5,6.5
							c-3.8,2.2-7,5.3-9.3,8.8l-7.5-1.7c-0.8-0.2-1.6,0.2-1.8,0.8l-1.7,4.1c-0.3,0.6,0,1.3,0.7,1.7l6.7,3.3
							c-0.5,2.2-0.8,4.5-0.7,6.8c0.1,2,0.4,3.9,0.9,5.8l-6.4,3.7c-0.7,0.4-0.9,1.2-0.6,1.7l2.1,4c0.3,0.6,1.1,0.9,1.8,0.7l6.9-2.1
							c2.6,3.6,6.1,6.6,10.1,8.7l-1.6,6.1c-0.2,0.7,0.2,1.4,0.9,1.6l4.5,1.6c0.6,0.3,1.5,0,1.8-0.7l3.3-5.6c1.8,0.3,3.7,0.5,5.7,0.5
							v-7.9c-11.2-0.1-20.4-8.1-20.8-18.4c-0.4-10.6,8.6-19.5,20.2-19.9c0.2,0,0.4,0,0.6,0v-7.9c-0.3,0-0.6,0-0.9,0
							C179.7,73,177.6,73.2,175.7,73.7z"/>
						<path class="st11" d="M172.1,100.3c0.2,5.2,4.9,9.4,10.6,9.5v-5.2c-2.7-0.1-4.8-2-5-4.5c-0.1-2.6,2.1-4.8,4.9-4.9c0,0,0,0,0,0
							v-5.1c-0.1,0-0.1,0-0.2,0C176.5,90.3,171.9,94.9,172.1,100.3z"/>
					</g>
				</g>
			</g>
			<g>
				<ellipse class="st11" cx="234.3" cy="67.4" rx="15.6" ry="14.2"/>
				<g>
					<path class="st4" d="M234.3,64.1c-1.9,0.1-3.4,1.5-3.3,3.3c0.1,1.7,1.7,3.1,3.6,3c1.9-0.1,3.4-1.5,3.3-3.3
						C237.8,65.4,236.2,64,234.3,64.1z M233.9,54.3c-7.8,0.3-13.9,6.2-13.6,13.4c0.3,7.1,6.8,12.7,14.6,12.4
						c7.8-0.3,13.9-6.2,13.6-13.4C248.2,59.6,241.7,54.1,233.9,54.3z M234.7,73.8c-4,0.1-7.4-2.7-7.5-6.4c-0.1-3.7,3-6.7,7-6.9
						c4-0.1,7.4,2.7,7.5,6.4C241.8,70.6,238.7,73.7,234.7,73.8z M258.6,73.8l-1.2,2.8c-0.1,0.4-0.7,0.7-1.2,0.5l-4.4-1
						c-1.6,2.6-3.9,4.8-6.6,6.4l1.4,3.9c0.2,0.5-0.1,1-0.5,1.1l-2.9,1.3c-0.4,0.2-1,0-1.3-0.4l-2.5-3.5c-1.4,0.3-2.8,0.5-4.3,0.6
						c-1.6,0.1-3.2-0.1-4.7-0.3l-2.2,3.8c-0.3,0.4-0.8,0.6-1.2,0.4l-3-1.1c-0.5-0.1-0.7-0.6-0.6-1.1l1.1-4.1
						c-2.7-1.4-5.1-3.4-6.8-5.9l-4.7,1.4c-0.5,0.2-1.1-0.1-1.2-0.5l-1.4-2.7c-0.2-0.4-0.1-0.9,0.4-1.2l4.3-2.5
						c-0.4-1.3-0.6-2.6-0.6-3.9c-0.1-1.6,0.1-3.1,0.4-4.6l-4.5-2.2c-0.5-0.2-0.7-0.7-0.5-1.1l1.2-2.8c0.1-0.4,0.7-0.7,1.2-0.5l5,1.1
						c1.6-2.4,3.7-4.4,6.3-5.9l-1.7-4.4c-0.2-0.5,0-1,0.5-1.1l2.9-1.3c0.4-0.2,1-0.1,1.3,0.3l3,4.1c0,0,0,0.1,0,0.1
						c1.3-0.3,2.7-0.5,4.1-0.5c1.5-0.1,3,0.1,4.5,0.3c0,0,0,0,0,0l2.7-4.3c0.3-0.4,0.8-0.6,1.3-0.4l3,1.1c0.5,0.1,0.7,0.6,0.6,1.1
						l-1.4,4.5c2.5,1.3,4.7,3.1,6.4,5.2l4.6-1.4c0.5-0.2,1.1,0.1,1.2,0.5l1.4,2.7c0.2,0.4,0.1,0.9-0.4,1.2l-4,2.3
						c0.5,1.5,0.8,3.1,0.9,4.7c0.1,1.4-0.1,2.8-0.3,4.1l4.1,2C258.6,72.9,258.8,73.4,258.6,73.8z"/>
				</g>
			</g>
			<g>
				<polygon class="st5" points="103.6,252.3 132.5,252.3 132.5,267.2 116.6,272.1 102.9,266.6 				"/>
				<g>
					<g>
						<g>
							<g>
								<path class="st11" d="M89.5,173.5c-5.8,4.6-5,19.1-0.7,28.3c4.3,9.2,16.6,37.5,16.6,37.5s6.7,1.8,13.5,2.7v-79.2
									C106.6,163,93.9,170,89.5,173.5z"/>
							</g>
						</g>
						<g>
							<g>
								<path class="st5" d="M146.9,173.5c5.8,4.6,5,19.1,0.7,28.3c-4.3,9.2-16.6,37.5-16.6,37.5s-6.7,1.8-13.5,2.7v-79.2
									C129.7,163,142.5,170,146.9,173.5z"/>
							</g>
						</g>
					</g>
					<g>
						<g>
							<g>
								<path class="st12" d="M158.2,190.5c0-17.6-18-31.8-40.2-31.8c-22.2,0-40.2,14.2-40.2,31.8c0,5.8,2,11.1,5.4,15.8
									c5,8.5,14.8,28.2,17.4,42h12.9c5.3,0,9.5,0,9.5,0h12.2c3.2-16.5,18.6-41.5,20.1-45.6l-0.1,0
									C157.1,198.9,158.2,194.8,158.2,190.5z M145.3,200.2c-1.2,3-12.4,21.3-14.8,33.4h-8.9c0,0-3.1,0-6.9,0h-9.5
									c-1.9-10.1-9.1-24.5-12.8-30.7c-2.5-3.4-3.9-7.4-3.9-11.6c0-12.9,13.2-23.3,29.4-23.3c16.3,0,29.5,10.4,29.5,23.3
									C147.5,194.5,146.7,197.5,145.3,200.2L145.3,200.2z"/>
							</g>
						</g>
						<g>
							<path class="st12" d="M123.7,147.9c0,2.3-2,4.2-4.6,4.2h-2.3c-2.5,0-4.6-1.9-4.6-4.2v-18.8c0-2.3,2-4.2,4.6-4.2h2.3
								c2.5,0,4.6,1.9,4.6,4.2V147.9z"/>
							<path class="st12" d="M164.8,166.6c-1.9,1.5-4.8,1.2-6.4-0.5l-1.5-1.6c-1.6-1.8-1.4-4.4,0.6-5.9l15.7-12.1
								c1.9-1.5,4.8-1.3,6.4,0.5l1.5,1.6c1.6,1.8,1.4,4.4-0.6,5.9L164.8,166.6z"/>
							<path class="st12" d="M172.4,206c-2.5,0-4.6-1.9-4.6-4.2v-2.1c0-2.3,2-4.2,4.6-4.2H193c2.5,0,4.6,1.9,4.6,4.2l0,2.1
								c0,2.3-2.1,4.2-4.6,4.2H172.4z"/>
							<g>
								<path class="st12" d="M71.7,166.6c1.9,1.5,4.8,1.2,6.4-0.5l1.5-1.6c1.6-1.8,1.4-4.4-0.6-5.9l-15.8-12.1
									c-1.9-1.5-4.8-1.3-6.4,0.5l-1.5,1.6c-1.6,1.8-1.4,4.4,0.6,5.9L71.7,166.6z"/>
								<path class="st12" d="M64.1,206c2.5,0,4.6-1.9,4.6-4.2v-2.1c0-2.3-2-4.2-4.6-4.2H43.5c-2.5,0-4.6,1.9-4.6,4.2v2.1
									c0,2.3,2.1,4.2,4.6,4.2H64.1z"/>
							</g>
						</g>
						<path class="st12" d="M101.2,251.3c0,0,0.1,14.1,0.1,15.6c0,1.5,10,10.2,12.2,11.7c0.2,0.3,0.3,0.5,0.4,0.5
							c0.6,0.3,2.5,0.4,4.4,0.4c1.9,0,3.9-0.2,4.4-0.4c0.1,0,0.2-0.2,0.4-0.5c2.1-1.6,12.2-10.2,12.2-11.7c0-1.6,0.1-15.6,0.1-15.6
							H101.2z M130.9,266.2c0,0.4-0.3,0.7-0.7,0.7h-23.8c-0.4,0-0.7-0.3-0.7-0.7v-0.5c0-0.4,0.3-0.7,0.7-0.7h23.8
							c0.4,0,0.7,0.3,0.7,0.7V266.2z M130.9,261.4c0,0.4-0.3,0.7-0.7,0.7h-23.8c-0.4,0-0.7-0.3-0.7-0.7v-0.5c0-0.4,0.3-0.7,0.7-0.7
							h23.8c0.4,0,0.7,0.3,0.7,0.7V261.4z M130.9,256.7c0,0.4-0.3,0.7-0.7,0.7h-23.8c-0.4,0-0.7-0.3-0.7-0.7v-0.5
							c0-0.4,0.3-0.7,0.7-0.7h23.8c0.4,0,0.7,0.3,0.7,0.7V256.7z"/>
					</g>
				</g>
			</g>
			<g>
				<g>
					<polygon class="st11" points="270.8,287.6 260.1,298 238.8,279.7 249.5,269.3 					"/>
					<polygon class="st5" points="270.8,287.6 265.3,292.9 244,274.6 249.5,269.3 					"/>
				</g>
				<g>
					<polygon class="st4" points="335.2,338.5 319.5,353.7 251.8,295.5 267.5,280.2 					"/>
					<polygon class="st11" points="335.2,338.5 328.9,344.6 261.3,286.3 267.5,280.2 					"/>
				</g>
				<g>
					<g>
						<g>
							<g>
								<path class="st11" d="M219.7,199.3c-27.7-5.6-55.2,10.4-61.4,35.7c-6.1,25.3,11.3,50.5,39.1,56.1
									c27.8,5.6,55.2-10.4,61.4-35.7C264.9,230,247.4,204.9,219.7,199.3z"/>
							</g>
						</g>
					</g>
					<g>
						<g>
							<g>
								<g>
									<g>
										<g>
											<path class="st4" d="M218.3,205.1c-24.2-4.9-48.2,9-53.6,31.2c-5.4,22.1,9.9,44.1,34.2,49c24.2,4.9,48.3-9.1,53.6-31.2
												C257.8,231.9,242.5,210,218.3,205.1z"/>
										</g>
									</g>
								</g>
							</g>
						</g>
					</g>
					<g>
						<g>
							<g>
								<g>
									<g>
										<g>
											<path class="st5" d="M217,210.1c-21.2-4.3-42.2,7.9-46.9,27.3c-4.7,19.3,8.7,38.5,29.8,42.8c21.2,4.3,42.2-7.9,46.9-27.3
												C251.6,233.6,238.2,214.4,217,210.1z"/>
										</g>
									</g>
								</g>
							</g>
						</g>
					</g>
				</g>
			</g>
		</g>
	</g>
</g>
</svg>
